<mxfile host="app.diagrams.net" modified="2020-09-24T08:04:04.841Z" agent="5.0 (Windows NT 10.0; WOW64) AppleWebKit/537.36 (KHTML, like Gecko) Chrome/78.0.3904.108 Safari/537.36" etag="zBybJADjKNdurbkXLHr8" version="13.7.5" type="github">
  <diagram id="Qlhy_yotKrb5slSAqrTe" name="第 1 页">
    <mxGraphModel dx="1384" dy="733" grid="1" gridSize="10" guides="1" tooltips="1" connect="1" arrows="1" fold="1" page="1" pageScale="1" pageWidth="827" pageHeight="1169" math="0" shadow="0">
      <root>
        <mxCell id="0" />
        <mxCell id="1" parent="0" />
        <mxCell id="jbhrJ_1sI7Op_4E3571n-1" value="" style="rounded=0;whiteSpace=wrap;html=1;dashed=1;" vertex="1" parent="1">
          <mxGeometry x="210" y="80" width="590" height="530" as="geometry" />
        </mxCell>
        <mxCell id="jbhrJ_1sI7Op_4E3571n-2" value="" style="rounded=0;whiteSpace=wrap;html=1;fillColor=#dae8fc;strokeColor=#6c8ebf;" vertex="1" parent="1">
          <mxGeometry x="575" y="193" width="215" height="300" as="geometry" />
        </mxCell>
        <mxCell id="jbhrJ_1sI7Op_4E3571n-3" value="" style="rounded=0;whiteSpace=wrap;html=1;fillColor=#dae8fc;strokeColor=#6c8ebf;" vertex="1" parent="1">
          <mxGeometry x="220" y="193" width="340" height="300" as="geometry" />
        </mxCell>
        <mxCell id="jbhrJ_1sI7Op_4E3571n-4" style="edgeStyle=orthogonalEdgeStyle;rounded=0;orthogonalLoop=1;jettySize=auto;html=1;exitX=0;exitY=0.5;exitDx=0;exitDy=0;" edge="1" parent="1" source="jbhrJ_1sI7Op_4E3571n-6" target="jbhrJ_1sI7Op_4E3571n-30">
          <mxGeometry relative="1" as="geometry" />
        </mxCell>
        <mxCell id="jbhrJ_1sI7Op_4E3571n-5" style="edgeStyle=orthogonalEdgeStyle;rounded=0;orthogonalLoop=1;jettySize=auto;html=1;exitX=0;exitY=0.5;exitDx=0;exitDy=0;" edge="1" parent="1" source="jbhrJ_1sI7Op_4E3571n-6" target="jbhrJ_1sI7Op_4E3571n-31">
          <mxGeometry relative="1" as="geometry" />
        </mxCell>
        <mxCell id="jbhrJ_1sI7Op_4E3571n-6" value="&lt;b&gt;Report Portal&lt;/b&gt;" style="rounded=0;whiteSpace=wrap;html=1;fillColor=#dae8fc;strokeColor=#6c8ebf;" vertex="1" parent="1">
          <mxGeometry x="220" y="130" width="570" height="50" as="geometry" />
        </mxCell>
        <mxCell id="jbhrJ_1sI7Op_4E3571n-7" style="edgeStyle=orthogonalEdgeStyle;rounded=0;orthogonalLoop=1;jettySize=auto;html=1;exitX=0.995;exitY=0.63;exitDx=0;exitDy=0;exitPerimeter=0;" edge="1" parent="1" source="jbhrJ_1sI7Op_4E3571n-8" target="jbhrJ_1sI7Op_4E3571n-14">
          <mxGeometry relative="1" as="geometry" />
        </mxCell>
        <mxCell id="jbhrJ_1sI7Op_4E3571n-8" value="" style="html=1;dashed=0;whitespace=wrap;fillColor=#2875E2;strokeColor=#ffffff;points=[[0.005,0.63,0],[0.1,0.2,0],[0.9,0.2,0],[0.5,0,0],[0.995,0.63,0],[0.72,0.99,0],[0.5,1,0],[0.28,0.99,0]];shape=mxgraph.kubernetes.icon;prIcon=api" vertex="1" parent="1">
          <mxGeometry x="260" y="213" width="60" height="60" as="geometry" />
        </mxCell>
        <mxCell id="jbhrJ_1sI7Op_4E3571n-9" value="" style="html=1;dashed=0;whitespace=wrap;fillColor=#2875E2;strokeColor=#ffffff;points=[[0.005,0.63,0],[0.1,0.2,0],[0.9,0.2,0],[0.5,0,0],[0.995,0.63,0],[0.72,0.99,0],[0.5,1,0],[0.28,0.99,0]];shape=mxgraph.kubernetes.icon;prIcon=api" vertex="1" parent="1">
          <mxGeometry x="260" y="354" width="60" height="60" as="geometry" />
        </mxCell>
        <mxCell id="jbhrJ_1sI7Op_4E3571n-10" value="" style="html=1;dashed=0;whitespace=wrap;fillColor=#2875E2;strokeColor=#ffffff;points=[[0.005,0.63,0],[0.1,0.2,0],[0.9,0.2,0],[0.5,0,0],[0.995,0.63,0],[0.72,0.99,0],[0.5,1,0],[0.28,0.99,0]];shape=mxgraph.kubernetes.icon;prIcon=api" vertex="1" parent="1">
          <mxGeometry x="260" y="513" width="60" height="60" as="geometry" />
        </mxCell>
        <mxCell id="jbhrJ_1sI7Op_4E3571n-11" value="Report Publish Interface" style="text;html=1;strokeColor=none;fillColor=none;align=center;verticalAlign=middle;whiteSpace=wrap;rounded=0;" vertex="1" parent="1">
          <mxGeometry x="230" y="283" width="140" height="20" as="geometry" />
        </mxCell>
        <mxCell id="jbhrJ_1sI7Op_4E3571n-12" value="PowerBI Personal Setting Interface" style="text;html=1;strokeColor=none;fillColor=none;align=center;verticalAlign=middle;whiteSpace=wrap;rounded=0;" vertex="1" parent="1">
          <mxGeometry x="230" y="433" width="140" height="20" as="geometry" />
        </mxCell>
        <mxCell id="jbhrJ_1sI7Op_4E3571n-13" value="Data API" style="text;html=1;strokeColor=none;fillColor=none;align=center;verticalAlign=middle;whiteSpace=wrap;rounded=0;" vertex="1" parent="1">
          <mxGeometry x="220" y="575" width="140" height="20" as="geometry" />
        </mxCell>
        <mxCell id="jbhrJ_1sI7Op_4E3571n-14" value="" style="shape=image;html=1;verticalAlign=top;verticalLabelPosition=bottom;labelBackgroundColor=#ffffff;imageAspect=0;aspect=fixed;image=https://cdn4.iconfinder.com/data/icons/pc_de_hamburg_icon_pack/32x32/publish.png" vertex="1" parent="1">
          <mxGeometry x="432" y="226" width="50" height="50" as="geometry" />
        </mxCell>
        <mxCell id="jbhrJ_1sI7Op_4E3571n-15" value="Report Publish" style="text;html=1;strokeColor=none;fillColor=none;align=center;verticalAlign=middle;whiteSpace=wrap;rounded=0;" vertex="1" parent="1">
          <mxGeometry x="390" y="283" width="140" height="20" as="geometry" />
        </mxCell>
        <mxCell id="jbhrJ_1sI7Op_4E3571n-16" style="edgeStyle=orthogonalEdgeStyle;rounded=0;orthogonalLoop=1;jettySize=auto;html=1;exitX=0;exitY=0.5;exitDx=0;exitDy=0;entryX=0.995;entryY=0.63;entryDx=0;entryDy=0;entryPerimeter=0;" edge="1" parent="1" source="jbhrJ_1sI7Op_4E3571n-17" target="jbhrJ_1sI7Op_4E3571n-9">
          <mxGeometry relative="1" as="geometry" />
        </mxCell>
        <mxCell id="jbhrJ_1sI7Op_4E3571n-17" value="" style="shape=image;html=1;verticalAlign=top;verticalLabelPosition=bottom;labelBackgroundColor=#ffffff;imageAspect=0;aspect=fixed;image=https://cdn4.iconfinder.com/data/icons/adobe-apps/512/Creative_cloud-128.png" vertex="1" parent="1">
          <mxGeometry x="430" y="329" width="54" height="54" as="geometry" />
        </mxCell>
        <mxCell id="jbhrJ_1sI7Op_4E3571n-18" style="edgeStyle=orthogonalEdgeStyle;rounded=0;orthogonalLoop=1;jettySize=auto;html=1;exitX=0;exitY=0.5;exitDx=0;exitDy=0;entryX=0.995;entryY=0.63;entryDx=0;entryDy=0;entryPerimeter=0;" edge="1" parent="1" source="jbhrJ_1sI7Op_4E3571n-19" target="jbhrJ_1sI7Op_4E3571n-9">
          <mxGeometry relative="1" as="geometry" />
        </mxCell>
        <mxCell id="jbhrJ_1sI7Op_4E3571n-19" value="" style="shape=image;html=1;verticalAlign=top;verticalLabelPosition=bottom;labelBackgroundColor=#ffffff;imageAspect=0;aspect=fixed;image=https://cdn2.iconfinder.com/data/icons/free-1/128/Favorite__star-128.png" vertex="1" parent="1">
          <mxGeometry x="430" y="403" width="50" height="50" as="geometry" />
        </mxCell>
        <mxCell id="jbhrJ_1sI7Op_4E3571n-20" value="Report Subsciption" style="text;html=1;strokeColor=none;fillColor=none;align=center;verticalAlign=middle;whiteSpace=wrap;rounded=0;" vertex="1" parent="1">
          <mxGeometry x="390" y="383" width="140" height="20" as="geometry" />
        </mxCell>
        <mxCell id="jbhrJ_1sI7Op_4E3571n-21" value="Favorite Report Setting" style="text;html=1;strokeColor=none;fillColor=none;align=center;verticalAlign=middle;whiteSpace=wrap;rounded=0;" vertex="1" parent="1">
          <mxGeometry x="400" y="463" width="140" height="20" as="geometry" />
        </mxCell>
        <mxCell id="jbhrJ_1sI7Op_4E3571n-22" value="" style="html=1;dashed=0;whitespace=wrap;fillColor=#2875E2;strokeColor=#ffffff;points=[[0.005,0.63,0],[0.1,0.2,0],[0.9,0.2,0],[0.5,0,0],[0.995,0.63,0],[0.72,0.99,0],[0.5,1,0],[0.28,0.99,0]];shape=mxgraph.kubernetes.icon;prIcon=user" vertex="1" parent="1">
          <mxGeometry x="610" y="225" width="50" height="48" as="geometry" />
        </mxCell>
        <mxCell id="jbhrJ_1sI7Op_4E3571n-23" value="" style="html=1;dashed=0;whitespace=wrap;fillColor=#2875E2;strokeColor=#ffffff;points=[[0.005,0.63,0],[0.1,0.2,0],[0.9,0.2,0],[0.5,0,0],[0.995,0.63,0],[0.72,0.99,0],[0.5,1,0],[0.28,0.99,0]];shape=mxgraph.kubernetes.icon;prIcon=c_role" vertex="1" parent="1">
          <mxGeometry x="610" y="293" width="50" height="48" as="geometry" />
        </mxCell>
        <mxCell id="jbhrJ_1sI7Op_4E3571n-24" value="" style="shape=image;html=1;verticalAlign=top;verticalLabelPosition=bottom;labelBackgroundColor=#ffffff;imageAspect=0;aspect=fixed;image=https://cdn4.iconfinder.com/data/icons/wirecons-free-vector-icons/32/menu-alt-128.png" vertex="1" parent="1">
          <mxGeometry x="611" y="354" width="49" height="49" as="geometry" />
        </mxCell>
        <mxCell id="jbhrJ_1sI7Op_4E3571n-25" value="" style="aspect=fixed;html=1;points=[];align=center;image;fontSize=12;image=img/lib/mscae/Log.svg;" vertex="1" parent="1">
          <mxGeometry x="613" y="428" width="45" height="50" as="geometry" />
        </mxCell>
        <mxCell id="jbhrJ_1sI7Op_4E3571n-26" value="User Access" style="text;html=1;strokeColor=none;fillColor=none;align=left;verticalAlign=middle;whiteSpace=wrap;rounded=0;" vertex="1" parent="1">
          <mxGeometry x="670" y="239" width="110" height="20" as="geometry" />
        </mxCell>
        <mxCell id="jbhrJ_1sI7Op_4E3571n-27" value="Role Control and Managerment" style="text;html=1;strokeColor=none;fillColor=none;align=left;verticalAlign=middle;whiteSpace=wrap;rounded=0;" vertex="1" parent="1">
          <mxGeometry x="670" y="309" width="110" height="20" as="geometry" />
        </mxCell>
        <mxCell id="jbhrJ_1sI7Op_4E3571n-28" value="Menu Configuration" style="text;html=1;strokeColor=none;fillColor=none;align=left;verticalAlign=middle;whiteSpace=wrap;rounded=0;" vertex="1" parent="1">
          <mxGeometry x="670" y="368.5" width="110" height="20" as="geometry" />
        </mxCell>
        <mxCell id="jbhrJ_1sI7Op_4E3571n-29" value="User Log Management" style="text;html=1;strokeColor=none;fillColor=none;align=left;verticalAlign=middle;whiteSpace=wrap;rounded=0;" vertex="1" parent="1">
          <mxGeometry x="670" y="443" width="110" height="20" as="geometry" />
        </mxCell>
        <mxCell id="jbhrJ_1sI7Op_4E3571n-30" value="" style="outlineConnect=0;fontColor=#232F3E;gradientColor=#F34482;gradientDirection=north;fillColor=#BC1356;strokeColor=#ffffff;dashed=0;verticalLabelPosition=bottom;verticalAlign=top;align=center;html=1;fontSize=12;fontStyle=0;aspect=fixed;shape=mxgraph.aws4.resourceIcon;resIcon=mxgraph.aws4.sqs;" vertex="1" parent="1">
          <mxGeometry x="80" y="90" width="50" height="50" as="geometry" />
        </mxCell>
        <mxCell id="jbhrJ_1sI7Op_4E3571n-31" value="" style="outlineConnect=0;fontColor=#232F3E;gradientColor=#F34482;gradientDirection=north;fillColor=#BC1356;strokeColor=#ffffff;dashed=0;verticalLabelPosition=bottom;verticalAlign=top;align=center;html=1;fontSize=12;fontStyle=0;aspect=fixed;shape=mxgraph.aws4.resourceIcon;resIcon=mxgraph.aws4.sqs;" vertex="1" parent="1">
          <mxGeometry x="80" y="180" width="50" height="50" as="geometry" />
        </mxCell>
        <mxCell id="jbhrJ_1sI7Op_4E3571n-32" value="DataModel System" style="text;html=1;strokeColor=none;fillColor=none;align=center;verticalAlign=middle;whiteSpace=wrap;rounded=0;" vertex="1" parent="1">
          <mxGeometry x="40" y="150" width="140" height="20" as="geometry" />
        </mxCell>
        <mxCell id="jbhrJ_1sI7Op_4E3571n-33" value="MetaData System" style="text;html=1;strokeColor=none;fillColor=none;align=center;verticalAlign=middle;whiteSpace=wrap;rounded=0;" vertex="1" parent="1">
          <mxGeometry x="40" y="246" width="140" height="20" as="geometry" />
        </mxCell>
        <mxCell id="jbhrJ_1sI7Op_4E3571n-34" style="edgeStyle=orthogonalEdgeStyle;rounded=0;orthogonalLoop=1;jettySize=auto;html=1;exitX=1;exitY=0.5;exitDx=0;exitDy=0;" edge="1" parent="1" source="jbhrJ_1sI7Op_4E3571n-35" target="jbhrJ_1sI7Op_4E3571n-3">
          <mxGeometry relative="1" as="geometry" />
        </mxCell>
        <mxCell id="jbhrJ_1sI7Op_4E3571n-35" value="PowerBI" style="rounded=0;whiteSpace=wrap;html=1;" vertex="1" parent="1">
          <mxGeometry x="50" y="313" width="120" height="60" as="geometry" />
        </mxCell>
        <mxCell id="jbhrJ_1sI7Op_4E3571n-36" style="edgeStyle=orthogonalEdgeStyle;rounded=0;orthogonalLoop=1;jettySize=auto;html=1;exitX=1;exitY=0.5;exitDx=0;exitDy=0;entryX=0.005;entryY=0.63;entryDx=0;entryDy=0;entryPerimeter=0;" edge="1" parent="1" source="jbhrJ_1sI7Op_4E3571n-38" target="jbhrJ_1sI7Op_4E3571n-10">
          <mxGeometry relative="1" as="geometry" />
        </mxCell>
        <mxCell id="jbhrJ_1sI7Op_4E3571n-37" style="edgeStyle=orthogonalEdgeStyle;rounded=0;orthogonalLoop=1;jettySize=auto;html=1;exitX=0.5;exitY=0;exitDx=0;exitDy=0;entryX=0.5;entryY=1;entryDx=0;entryDy=0;" edge="1" parent="1" source="jbhrJ_1sI7Op_4E3571n-38" target="jbhrJ_1sI7Op_4E3571n-35">
          <mxGeometry relative="1" as="geometry" />
        </mxCell>
        <mxCell id="jbhrJ_1sI7Op_4E3571n-38" value="Redshift" style="rounded=0;whiteSpace=wrap;html=1;" vertex="1" parent="1">
          <mxGeometry x="50" y="521" width="120" height="60" as="geometry" />
        </mxCell>
        <mxCell id="jbhrJ_1sI7Op_4E3571n-39" value="&lt;b&gt;Report Quick Configuration&lt;/b&gt;" style="text;html=1;strokeColor=none;fillColor=none;align=center;verticalAlign=middle;whiteSpace=wrap;rounded=0;" vertex="1" parent="1">
          <mxGeometry x="290" y="199" width="200" height="20" as="geometry" />
        </mxCell>
        <mxCell id="jbhrJ_1sI7Op_4E3571n-40" value="&lt;b&gt;System Managerment&lt;/b&gt;" style="text;html=1;strokeColor=none;fillColor=none;align=center;verticalAlign=middle;whiteSpace=wrap;rounded=0;" vertex="1" parent="1">
          <mxGeometry x="580" y="203" width="200" height="20" as="geometry" />
        </mxCell>
        <mxCell id="jbhrJ_1sI7Op_4E3571n-41" value="Text" style="text;html=1;strokeColor=none;fillColor=none;align=center;verticalAlign=middle;whiteSpace=wrap;rounded=0;" vertex="1" parent="1">
          <mxGeometry x="440" y="293" width="40" height="20" as="geometry" />
        </mxCell>
        <mxCell id="jbhrJ_1sI7Op_4E3571n-42" value="&lt;b&gt;&lt;font style=&quot;font-size: 18px&quot;&gt;Reporting Platform&lt;/font&gt;&lt;/b&gt;" style="text;html=1;strokeColor=none;fillColor=none;align=center;verticalAlign=middle;whiteSpace=wrap;rounded=0;" vertex="1" parent="1">
          <mxGeometry x="401" y="100" width="210" height="20" as="geometry" />
        </mxCell>
        <mxCell id="jbhrJ_1sI7Op_4E3571n-43" style="edgeStyle=orthogonalEdgeStyle;rounded=0;orthogonalLoop=1;jettySize=auto;html=1;exitX=0.5;exitY=1;exitDx=0;exitDy=0;entryX=0.765;entryY=-0.02;entryDx=0;entryDy=0;entryPerimeter=0;" edge="1" parent="1" source="jbhrJ_1sI7Op_4E3571n-44" target="jbhrJ_1sI7Op_4E3571n-6">
          <mxGeometry relative="1" as="geometry" />
        </mxCell>
        <mxCell id="jbhrJ_1sI7Op_4E3571n-44" value="" style="aspect=fixed;perimeter=ellipsePerimeter;html=1;align=center;shadow=0;dashed=0;spacingTop=3;image;image=img/lib/active_directory/user_accounts.svg;" vertex="1" parent="1">
          <mxGeometry x="631" y="20" width="50" height="48.5" as="geometry" />
        </mxCell>
        <mxCell id="jbhrJ_1sI7Op_4E3571n-45" value="" style="edgeStyle=orthogonalEdgeStyle;rounded=0;orthogonalLoop=1;jettySize=auto;html=1;" edge="1" parent="1" source="jbhrJ_1sI7Op_4E3571n-46">
          <mxGeometry relative="1" as="geometry">
            <mxPoint x="790" y="319" as="targetPoint" />
          </mxGeometry>
        </mxCell>
        <mxCell id="jbhrJ_1sI7Op_4E3571n-46" value="" style="verticalLabelPosition=bottom;html=1;verticalAlign=top;align=center;strokeColor=none;fillColor=#00BEF2;shape=mxgraph.azure.user;" vertex="1" parent="1">
          <mxGeometry x="830" y="294" width="44.5" height="50" as="geometry" />
        </mxCell>
        <mxCell id="jbhrJ_1sI7Op_4E3571n-47" value="Business User" style="text;html=1;strokeColor=none;fillColor=none;align=center;verticalAlign=middle;whiteSpace=wrap;rounded=0;" vertex="1" parent="1">
          <mxGeometry x="705" y="40" width="95" height="20" as="geometry" />
        </mxCell>
        <mxCell id="jbhrJ_1sI7Op_4E3571n-48" value="Administrator" style="text;html=1;strokeColor=none;fillColor=none;align=center;verticalAlign=middle;whiteSpace=wrap;rounded=0;" vertex="1" parent="1">
          <mxGeometry x="820" y="354" width="95" height="20" as="geometry" />
        </mxCell>
      </root>
    </mxGraphModel>
  </diagram>
</mxfile>
